<svg xmlns="http://www.w3.org/2000/svg" viewBox="0 0 1200 800" width="1200" height="800">
  <defs>
    <linearGradient id="bg" x1="0" x2="1" y1="0" y2="1">
      <stop offset="0%" stop-color="#f7f9fc"/>
      <stop offset="100%" stop-color="#eaf1fb"/>
    </linearGradient>
    <linearGradient id="bar" x1="0" x2="0" y1="0" y2="1">
      <stop offset="0%" stop-color="#4a90d9"/>
      <stop offset="100%" stop-color="#1f5fa1"/>
    </linearGradient>
  </defs>

  <rect width="1200" height="800" fill="url(#bg)"/>

  <rect x="90" y="120" width="1020" height="560" rx="14" fill="#ffffff" stroke="#cfdae9" stroke-width="2"/>
  <rect x="90" y="120" width="1020" height="70" rx="14" fill="#13294b"/>
  <circle cx="130" cy="155" r="8" fill="#9fc5ef"/>
  <circle cx="160" cy="155" r="8" fill="#78afe8"/>
  <circle cx="190" cy="155" r="8" fill="#4a90d9"/>

  <rect x="150" y="230" width="180" height="380" fill="url(#bar)" opacity="0.22"/>
  <rect x="370" y="280" width="180" height="330" fill="url(#bar)" opacity="0.38"/>
  <rect x="590" y="250" width="180" height="360" fill="url(#bar)" opacity="0.55"/>
  <rect x="810" y="210" width="180" height="400" fill="url(#bar)" opacity="0.72"/>

  <polyline points="150,520 260,470 350,490 480,420 620,455 760,360 920,300 1020,265"
    fill="none" stroke="#13294b" stroke-width="8" stroke-linecap="round" stroke-linejoin="round"/>

  <circle cx="260" cy="470" r="9" fill="#13294b"/>
  <circle cx="480" cy="420" r="9" fill="#13294b"/>
  <circle cx="760" cy="360" r="9" fill="#13294b"/>
  <circle cx="920" cy="300" r="9" fill="#13294b"/>

  <rect x="150" y="640" width="840" height="6" fill="#d9e3f1"/>
  <rect x="150" y="675" width="560" height="6" fill="#d9e3f1"/>
</svg>
